<svg xmlns="http://www.w3.org/2000/svg" xmlns:xlink="http://www.w3.org/1999/xlink" viewBox="0 0 32 32" id="movie"><defs><linearGradient id="a" x1="9.5" x2="14.5" y1="16" y2="16" gradientUnits="userSpaceOnUse"><stop offset="0" stop-color="#8a5082"></stop><stop offset="1" stop-color="#6f5f90"></stop></linearGradient><linearGradient id="b" y1="10" y2="10" xlink:href="#a"></linearGradient><linearGradient id="c" x1="15.15" x2="20.15" y1="14.1" y2="14.1" xlink:href="#a"></linearGradient><linearGradient id="d" x1="13" x2="18" y1="20.76" y2="20.76" xlink:href="#a"></linearGradient><linearGradient id="e" x1="6" x2="11" y1="20.76" y2="20.76" xlink:href="#a"></linearGradient><linearGradient id="f" x1="3.85" x2="8.85" y1="14.1" y2="14.1" xlink:href="#a"></linearGradient><linearGradient id="g" x1="1" x2="31" xlink:href="#a"></linearGradient></defs><path fill="url(#a)" d="M12 18.5A2.5 2.5 0 1 0 9.5 16a2.5 2.5 0 0 0 2.5 2.5Zm0-3a.5.5 0 1 1-.5.5.5.5 0 0 1 .5-.5Z"></path><path fill="url(#b)" d="M12 12.5A2.5 2.5 0 1 0 9.5 10a2.5 2.5 0 0 0 2.5 2.5Zm0-3a.5.5 0 1 1-.5.5.5.5 0 0 1 .5-.5Z"></path><path fill="url(#c)" d="M17.65 16.6a2.5 2.5 0 1 0-2.5-2.5 2.5 2.5 0 0 0 2.5 2.5Zm0-3a.5.5 0 0 1 .5.5.5.5 0 0 1-.5.5.5.5 0 0 1-.5-.5.51.51 0 0 1 .5-.5Z"></path><path fill="url(#d)" d="M15.5 18.26a2.5 2.5 0 1 0 2.5 2.5 2.5 2.5 0 0 0-2.5-2.5Zm0 3a.5.5 0 0 1-.5-.5.5.5 0 0 1 1 0 .5.5 0 0 1-.5.5Z"></path><path fill="url(#e)" d="M8.5 18.26a2.5 2.5 0 1 0 2.5 2.5 2.5 2.5 0 0 0-2.5-2.5Zm0 3a.5.5 0 0 1-.5-.5.5.5 0 0 1 1 0 .5.5 0 0 1-.5.5Z"></path><path fill="url(#f)" d="M8.85 14.1a2.5 2.5 0 1 0-2.5 2.5 2.51 2.51 0 0 0 2.5-2.5Zm-3 0a.5.5 0 0 1 .5-.5.51.51 0 0 1 .5.5.5.5 0 0 1-.5.5.5.5 0 0 1-.5-.5Z"></path><path fill="url(#g)" d="m30.89 25.55-2-4A1 1 0 0 0 28 21h-6.21A11 11 0 1 0 12 27h18a1 1 0 0 0 .89-1.45ZM3 16a9 9 0 1 1 16.16 5.43 8.83 8.83 0 0 1-.62.73l-.06.07A9 9 0 0 1 17 23.49c-.11.08-.23.14-.34.21a4.25 4.25 0 0 1-.46.27l-.43.21c-.14.06-.29.13-.44.18a4.7 4.7 0 0 1-.45.17l-.48.14-.43.11c-.2 0-.39.08-.59.11l-.36.05A8.22 8.22 0 0 1 12 25a9 9 0 0 1-9-9Zm15.54 8.82a8.94 8.94 0 0 0 .76-.62l.25-.22a10.77 10.77 0 0 0 .93-1h1.83l1 2h-5a1.92 1.92 0 0 0 .23-.16Zm7 .18-1-2h2.84l1 2Z"></path></svg>